<?xml version="1.0" encoding="UTF-8"?>
<!DOCTYPE svg PUBLIC "-//W3C//DTD SVG 1.1//EN" "http://www.w3.org/Graphics/SVG/1.1/DTD/svg11.dtd">
<svg xmlns="http://www.w3.org/2000/svg" version="1.1" width="55px" height="51px" style="shape-rendering:geometricPrecision; text-rendering:geometricPrecision; image-rendering:optimizeQuality; fill-rule:evenodd; clip-rule:evenodd" xmlns:xlink="http://www.w3.org/1999/xlink">
<g><path style="opacity:1" fill="#e72c27" d="M 53.5,21.5 C 53.665,24.8499 53.4983,28.1832 53,31.5C 50.9327,34.07 48.4327,36.07 45.5,37.5C 44.4614,41.1054 43.7947,44.7721 43.5,48.5C 32.5,49.8333 21.5,49.8333 10.5,48.5C 10.5879,44.6942 9.92128,41.0275 8.5,37.5C 5.56727,36.07 3.06727,34.07 1,31.5C 0.501655,28.1832 0.334989,24.8499 0.5,21.5C 9.71309,0.402308 24.3798,-4.43103 44.5,7C 48.4151,11.3435 51.4151,16.1768 53.5,21.5 Z"/></g>
<g><path style="opacity:1" fill="#fecc11" d="M 20.5,6.5 C 22.1667,6.5 23.8333,6.5 25.5,6.5C 26.8311,42.4628 27.4978,42.4628 27.5,6.5C 29.8333,6.5 32.1667,6.5 34.5,6.5C 32.2815,15.4193 30.7815,24.4193 30,33.5C 31.9258,25.0555 34.2591,16.7222 37,8.5C 39.0529,9.26651 40.5529,10.5998 41.5,12.5C 39.0425,17.3877 37.2092,22.3877 36,27.5C 38.4159,22.9994 41.0825,18.6661 44,14.5C 45.3631,15.8928 46.1964,17.5595 46.5,19.5C 43.5858,23.6405 40.4191,27.6405 37,31.5C 36.3333,32.1667 36.3333,32.8333 37,33.5C 40.3333,30.1667 43.6667,26.8333 47,23.5C 48.4868,25.272 48.8201,27.272 48,29.5C 45.3333,31.5 42.6667,33.5 40,35.5C 39.5026,38.146 39.3359,40.8127 39.5,43.5C 31.1667,44.8333 22.8333,44.8333 14.5,43.5C 14.6641,40.8127 14.4974,38.146 14,35.5C 11.3333,33.5 8.66667,31.5 6,29.5C 5.19234,27.4213 5.35901,25.4213 6.5,23.5C 9.81785,26.3172 12.9845,29.3172 16,32.5C 16.6667,31.8333 16.6667,31.1667 16,30.5C 12.9426,26.9506 10.1093,23.2839 7.5,19.5C 7.80359,17.5595 8.63692,15.8928 10,14.5C 12.583,17.9974 14.9164,21.6641 17,25.5C 16.1279,21.0591 14.6279,16.7258 12.5,12.5C 13.3599,10.7284 14.6932,9.39506 16.5,8.5C 19.7004,16.6031 22.2004,24.9364 24,33.5C 23.218,25.0851 21.718,16.7518 19.5,8.5C 19.8627,7.81654 20.1961,7.14987 20.5,6.5 Z"/></g>
<g><path style="opacity:0.594" fill="#fef1f2" d="M 21.5,-0.5 C 25.1667,-0.5 28.8333,-0.5 32.5,-0.5C 44.2529,2.25373 51.2529,9.58706 53.5,21.5C 51.4151,16.1768 48.4151,11.3435 44.5,7C 24.3798,-4.43103 9.71309,0.402308 0.5,21.5C 2.7471,9.58706 9.7471,2.25373 21.5,-0.5 Z"/></g>
<g><path style="opacity:0.346" fill="#fef6f6" d="M -0.5,21.5 C -0.166667,21.5 0.166667,21.5 0.5,21.5C 0.334989,24.8499 0.501655,28.1832 1,31.5C 3.06727,34.07 5.56727,36.07 8.5,37.5C 9.92128,41.0275 10.5879,44.6942 10.5,48.5C 21.5,49.8333 32.5,49.8333 43.5,48.5C 43.7947,44.7721 44.4614,41.1054 45.5,37.5C 48.4327,36.07 50.9327,34.07 53,31.5C 53.4983,28.1832 53.665,24.8499 53.5,21.5C 53.8333,21.5 54.1667,21.5 54.5,21.5C 54.5,25.1667 54.5,28.8333 54.5,32.5C 52.1348,34.8603 49.4681,36.8603 46.5,38.5C 45.4614,42.1054 44.7947,45.7721 44.5,49.5C 39.3054,49.1795 34.3054,49.5128 29.5,50.5C 27.8333,50.5 26.1667,50.5 24.5,50.5C 19.6946,49.5128 14.6946,49.1795 9.5,49.5C 9.07854,45.7999 8.41188,42.1333 7.5,38.5C 4.53189,36.8603 1.86522,34.8603 -0.5,32.5C -0.5,28.8333 -0.5,25.1667 -0.5,21.5 Z"/></g>
</svg>
