<svg width="24" height="24" viewBox="0 0 24 24" fill="none" xmlns="http://www.w3.org/2000/svg">
<path fill-rule="evenodd" clip-rule="evenodd" d="M10.5 5.99997C12.9854 5.99997 15 8.01454 15 10.5C15 12.9854 12.9854 15 10.5 15C8.01457 15 6 12.9854 6 10.5C6 8.01454 8.01457 5.99997 10.5 5.99997ZM10.5 3.99997C14.09 3.99997 17 6.90997 17 10.5C17 11.9341 16.5356 13.2598 15.749 14.3347L19.7175 18.3033C19.9128 18.4985 19.9128 18.8151 19.7175 19.0104L19.0104 19.7175C18.8151 19.9127 18.4986 19.9127 18.3033 19.7175L14.3347 15.7489C13.2598 16.5356 11.9342 17 10.5 17C6.91 17 4 14.09 4 10.5C4 6.90997 6.91 3.99997 10.5 3.99997Z" fill="#404040"/>
</svg>
