<svg width="16" height="16" viewBox="0 0 16 16" fill="none" xmlns="http://www.w3.org/2000/svg">
<path fill-rule="evenodd" clip-rule="evenodd" d="M11.724 3.33333H4.27604L8 7.05729L11.724 3.33333ZM3.33333 4.27624V11.724L7.05719 8.0001L3.33333 4.27624ZM4.27624 12.6667H11.7238L8 8.94291L4.27624 12.6667ZM12.6667 11.724V4.27624L8.94281 8.0001L12.6667 11.724ZM2 4C2 2.89543 2.89543 2 4 2H12C13.1046 2 14 2.89543 14 4V12C14 13.1046 13.1046 14 12 14H4C2.89543 14 2 13.1046 2 12V4Z" fill="white" fill-opacity="0.97"/>
</svg>
