<svg width="24" height="24" viewBox="0 0 24 24" fill="none" xmlns="http://www.w3.org/2000/svg">
<path fill-rule="evenodd" clip-rule="evenodd" d="M6 3C4.34315 3 3 4.34315 3 6V18C3 19.6569 4.34315 21 6 21H18C19.6569 21 21 19.6569 21 18V6C21 4.34315 19.6569 3 18 3H6ZM15.0849 8.99349C15.1612 9.10143 15.1404 9.25018 15.0372 9.33292L12.0998 11.6893C11.9921 11.7757 11.8347 11.7584 11.7483 11.6507L11.1226 10.8707C11.0362 10.763 11.0535 10.6056 11.1612 10.5192L12.3551 9.56152C11.9504 9.51336 11.5377 9.54776 11.1426 9.6654C10.5304 9.84765 9.9923 10.2202 9.60624 10.729C9.22018 11.2378 9.00628 11.8564 8.99557 12.4949C8.98486 13.1335 9.17791 13.7589 9.5467 14.2804C9.91549 14.8018 10.4408 15.1922 11.0465 15.3949C11.6522 15.5975 12.3067 15.602 12.915 15.4075C13.5234 15.213 14.0539 14.8297 14.4297 14.3133C14.7563 13.8644 14.9512 13.3353 14.9953 12.7852C15.0063 12.6475 15.1168 12.535 15.2548 12.5346L16.25 12.5313C16.388 12.5309 16.5011 12.6425 16.4939 12.7804C16.4715 13.2087 16.388 13.6298 16.2476 14.0313C16.1033 14.4437 15.8989 14.8353 15.6387 15.193C15.0759 15.9664 14.2814 16.5403 13.3703 16.8316C12.4593 17.1229 11.4791 17.1163 10.5721 16.8128C9.66503 16.5093 8.87828 15.9246 8.32599 15.1437C7.7737 14.3628 7.4846 13.4262 7.50063 12.4699C7.51667 11.5135 7.837 10.5872 8.41516 9.82522C8.99332 9.06327 9.79922 8.50534 10.7159 8.23241C11.1398 8.10621 11.5772 8.04398 12.0141 8.04534C12.2116 8.04596 12.4091 8.05959 12.6051 8.08619L11.8042 6.95443C11.7244 6.84172 11.7511 6.6857 11.8638 6.60594L12.6801 6.02827C12.7928 5.94851 12.9488 5.97522 13.0286 6.08792L15.0849 8.99349Z" fill="#FDB840"/>
</svg>
