<svg width="20" height="20" viewBox="0 0 20 20" fill="none" xmlns="http://www.w3.org/2000/svg">
<path fill-rule="evenodd" clip-rule="evenodd" d="M15 15.8333C15 16.2936 14.6269 16.6667 14.1667 16.6667H5.83337C5.37314 16.6667 5.00004 16.2936 5.00004 15.8333V4.16667C5.00004 3.70643 5.37314 3.33334 5.83337 3.33334H10V7.50001C10 7.96024 10.3731 8.33334 10.8334 8.33334H15V15.8333ZM11.6667 3.60703V6.66667H14.7264L11.6667 3.60703ZM3.33337 4.16667C3.33337 2.78596 4.45266 1.66667 5.83337 1.66667H11.393C11.835 1.66667 12.259 1.84227 12.5715 2.15483L16.1786 5.76185C16.4911 6.07441 16.6667 6.49833 16.6667 6.94036V15.8333C16.6667 17.2141 15.5474 18.3333 14.1667 18.3333H5.83337C4.45266 18.3333 3.33337 17.2141 3.33337 15.8333V4.16667Z" fill="#404040"/>
</svg>
