<svg width="20" height="20" viewBox="0 0 20 20" fill="none" xmlns="http://www.w3.org/2000/svg">
<path d="M4.99996 7.08333C4.99996 6.85321 5.18651 6.66667 5.41663 6.66667H14.5833C14.8134 6.66667 15 6.85321 15 7.08333V7.91667C15 8.14679 14.8134 8.33333 14.5833 8.33333H5.41663C5.18651 8.33333 4.99996 8.14679 4.99996 7.91667V7.08333Z" fill="#404040"/>
<path d="M5.41663 10C5.18651 10 4.99996 10.1865 4.99996 10.4167V11.25C4.99996 11.4801 5.18651 11.6667 5.41663 11.6667H14.5833C14.8134 11.6667 15 11.4801 15 11.25V10.4167C15 10.1865 14.8134 10 14.5833 10H5.41663Z" fill="#404040"/>
<path fill-rule="evenodd" clip-rule="evenodd" d="M1.66663 5C1.66663 3.61929 2.78591 2.5 4.16663 2.5H15.8333C17.214 2.5 18.3333 3.61929 18.3333 5V16.7762C18.3333 18.1074 16.8497 18.9014 15.7421 18.163L12.4576 15.9733C12.3207 15.882 12.1599 15.8333 11.9953 15.8333H4.16663C2.78591 15.8333 1.66663 14.714 1.66663 13.3333V5ZM4.16663 4.16667C3.70639 4.16667 3.33329 4.53976 3.33329 5V13.3333C3.33329 13.7936 3.70639 14.1667 4.16663 14.1667H11.9953C12.4889 14.1667 12.9714 14.3128 13.3821 14.5865L16.6666 16.7762V5C16.6666 4.53976 16.2935 4.16667 15.8333 4.16667H4.16663Z" fill="#404040"/>
</svg>
