<svg width="49" height="49" viewBox="0 0 49 49" fill="none" xmlns="http://www.w3.org/2000/svg">
<path fill-rule="evenodd" clip-rule="evenodd" d="M9.29067 44.4921H21.1239C21.9735 45.1611 22.9573 45.6183 24.0625 45.6183C25.1959 45.6183 26.1368 45.1833 27.0011 44.4921H38.8273L39.9515 35.6975L46.728 30.7861C47.0912 29.1156 47.2766 27.4315 47.2766 25.7205C47.2766 12.9103 36.8929 2.50635 24.0625 2.50635C11.2524 2.50635 0.848389 12.8901 0.848389 25.7205C0.848389 27.4324 1.03421 29.1173 1.39754 30.7886L8.23268 35.6975L9.29067 44.4921Z" fill="white"/>
<path fill-rule="evenodd" clip-rule="evenodd" d="M21.4971 43.3671H10.2343L9.23312 35.0451L2.35029 30.102C2.03743 28.6629 1.91229 27.1612 1.91229 25.6595C1.91229 13.3955 11.8611 3.50928 24.0625 3.50928C36.2638 3.50928 46.2127 13.4581 46.2127 25.6595C46.2127 27.1612 46.0875 28.6629 45.7747 30.102L38.9544 35.0451L37.8907 43.3671H26.6279L26.0022 43.8677C25.439 44.3057 24.7508 44.4934 24.0625 44.4934C23.3742 44.4934 22.6859 44.2431 22.1228 43.8677L21.4971 43.3671Z" fill="#FBCF09"/>
<path fill-rule="evenodd" clip-rule="evenodd" d="M10.2343 43.3671H21.4971L22.1228 43.8677C22.6859 44.2431 23.3742 44.4934 24.0625 44.4934C24.7508 44.4934 25.439 44.3057 26.0022 43.8677L26.6279 43.3671H37.8907L38.9544 35.0451L45.7747 30.102C46.0875 28.6629 46.2127 27.1612 46.2127 25.6595C46.2127 13.4581 36.2638 3.50928 24.0625 3.50928C11.8611 3.50928 1.91229 13.3955 1.91229 25.6595C1.91229 27.1612 2.03743 28.6629 2.35029 30.102L9.23312 35.0451L10.2343 43.3671ZM13.6758 39.4877H21.8726L22.9989 40.3637C23.3117 40.5514 23.6871 40.6766 24.0626 40.6766C24.438 40.6766 24.8134 40.614 25.1263 40.3637L26.3777 39.4877H34.5119L35.3254 32.8552L42.083 27.9746C42.2707 27.1612 42.3959 26.4103 42.3959 25.5969C42.3959 24.2829 42.1456 22.9689 41.5825 21.7801L29.6314 33.8563L41.207 19.5275C40.769 17.6504 39.7679 15.961 38.3288 14.7096L27.942 32.6675L37.2025 13.0201C36.0136 11.4559 34.3242 10.267 32.4471 9.70386L26.0648 32.0417L30.6951 8.82787C29.256 8.07701 27.6917 7.63902 26.0648 7.63902C25.752 7.63902 25.3766 7.63902 25.0637 7.70159L24.1251 31.7915L23.1866 7.70159C22.8737 7.63902 22.4983 7.63902 22.1854 7.63902C20.5586 7.63902 18.9943 8.01444 17.5552 8.82787L22.1854 32.0417L15.8032 9.76643C13.9261 10.3296 12.2366 11.5184 11.0478 13.0827L20.2457 32.6675L9.85893 14.7096C8.4198 16.0235 7.41866 17.6504 6.98066 19.5275L18.5563 33.8563L6.60524 21.7801C6.0421 22.9689 5.79181 24.2829 5.79181 25.5969C5.79181 26.4103 5.91695 27.2238 6.10467 27.9746L12.8623 32.8552L13.6758 39.4877Z" fill="#DD1D21"/>
</svg>
