<svg width="24" height="24" viewBox="0 0 24 24" fill="none" xmlns="http://www.w3.org/2000/svg">
<path fill-rule="evenodd" clip-rule="evenodd" d="M12 22C17.5228 22 22 17.5228 22 12C22 6.47715 17.5228 2 12 2C6.47715 2 2 6.47715 2 12C2 17.5228 6.47715 22 12 22ZM11.9976 6.99796C12.2737 6.99796 12.4976 7.22181 12.4976 7.49796L12.4976 12.0822L16.0352 15.6198C16.2305 15.8151 16.2305 16.1317 16.0352 16.3269L15.6817 16.6805C15.4864 16.8757 15.1698 16.8757 14.9746 16.6805L11.1817 12.8876C11.0693 12.7959 10.9976 12.6564 10.9976 12.5V7.49796C10.9976 7.22181 11.2214 6.99796 11.4976 6.99796H11.9976Z" fill="#FDB840"/>
</svg>
