<svg width="64" height="64" viewBox="0 0 64 64" fill="none" xmlns="http://www.w3.org/2000/svg">
<path fill-rule="evenodd" clip-rule="evenodd" d="M22.1521 45.3256H30.0409L30.3134 45.5401C30.8211 45.8786 31.4146 46.0764 32 46.0764C32.637 46.0764 33.2402 45.8897 33.7286 45.5098L33.959 45.3256H41.8432L42.5926 39.4625L47.1104 36.1882L47.1679 35.9235C47.3778 34.9579 47.4761 33.9206 47.4761 32.8112C47.4761 24.2711 40.5536 17.3351 32 17.3351C23.4599 17.3351 16.5239 24.2576 16.5239 32.8112C16.5239 33.9206 16.6222 34.9579 16.8321 35.9235L16.89 36.1899L21.4468 39.4625L22.1521 45.3256ZM30.5386 43.9069H23.4103L22.7808 38.674L18.1646 35.3588C18.0143 34.5716 17.9425 33.722 17.9425 32.8112C17.9425 25.0416 24.2428 18.7537 32 18.7537C39.7696 18.7537 46.0575 25.0539 46.0575 32.8112C46.0575 33.7226 45.9857 34.5728 45.8351 35.3605L41.2633 38.674L40.5944 43.9069H33.4615L32.8501 44.3961C32.6313 44.5662 32.3353 44.6578 32 44.6578C31.7175 44.6578 31.4032 44.5556 31.1241 44.3754L30.5386 43.9069Z" fill="white"/>
<path fill-rule="evenodd" clip-rule="evenodd" d="M30.2898 44.5754H22.7813L22.1138 39.0274L17.5253 35.732C17.3167 34.7725 17.2333 33.7714 17.2333 32.7703C17.2333 24.5943 23.8658 18.0035 32.0001 18.0035C40.1343 18.0035 46.7669 24.636 46.7669 32.7703C46.7669 33.7714 46.6834 34.7725 46.4749 35.732L41.928 39.0274L41.2189 44.5754H33.7103L33.2932 44.9091C32.9178 45.2011 32.4589 45.3262 32.0001 45.3262C31.5412 45.3262 31.0824 45.1594 30.7069 44.9091L30.2898 44.5754Z" fill="#FBCF09"/>
<path fill-rule="evenodd" clip-rule="evenodd" d="M30.2898 44.5754H22.7813L22.1138 39.0274L17.5253 35.732C17.3167 34.7725 17.2333 33.7714 17.2333 32.7703C17.2333 24.5943 23.8658 18.0035 32.0001 18.0035C40.1343 18.0035 46.7669 24.636 46.7669 32.7703C46.7669 33.7714 46.6834 34.7725 46.4749 35.732L41.928 39.0274L41.2189 44.5754H33.7103L33.2932 44.9091C32.9178 45.2011 32.4589 45.3262 32.0001 45.3262C31.5412 45.3262 31.0824 45.1594 30.7069 44.9091L30.2898 44.5754ZM30.5401 41.9891H25.0756L24.5333 37.5674L20.0282 34.3137C19.903 33.8131 19.8196 33.2709 19.8196 32.7286C19.8196 31.8526 19.9865 30.9766 20.3619 30.184L28.3293 38.2348L20.6122 28.6823C20.9042 27.4309 21.5716 26.3463 22.531 25.4703L29.4556 37.4423L23.3236 24.3858C24.1162 23.3429 25.2424 22.5503 26.4939 22.1749L30.7487 37.0251L27.6619 21.5492C28.6213 21.0069 29.6641 20.7566 30.7487 20.7566C30.9573 20.7566 31.2076 20.7566 31.4161 20.7984L32.0418 36.8583L32.6675 20.7984C32.8761 20.7566 33.1264 20.7566 33.335 20.7566C34.4195 20.7566 35.4624 21.0486 36.4218 21.5492L33.335 37.0251L37.5898 22.1332C38.8412 22.5086 39.9675 23.3012 40.7601 24.344L34.5864 37.4423L41.5109 25.4703C42.4704 26.3046 43.1378 27.4309 43.4298 28.6823L35.7127 38.2348L43.6801 30.184C44.0555 30.9766 44.2223 31.8526 44.2223 32.7286C44.2223 33.2709 44.1389 33.7714 44.0138 34.3137L39.5087 37.5674L38.9664 41.9891H33.5435L32.7093 42.5731C32.5007 42.7399 32.2504 42.7817 32.0001 42.7817C31.7498 42.7817 31.4996 42.6982 31.291 42.5731L30.5401 41.9891Z" fill="#DD1D21"/>
</svg>
