<svg width="32" height="32" viewBox="0 0 32 32" fill="none" xmlns="http://www.w3.org/2000/svg">
<path fill-rule="evenodd" clip-rule="evenodd" d="M26.6667 16.0001C26.6667 21.8911 21.891 26.6667 16 26.6667C10.109 26.6667 5.33333 21.8911 5.33333 16.0001C5.33333 10.109 10.109 5.33341 16 5.33341C21.891 5.33341 26.6667 10.109 26.6667 16.0001ZM29.3333 16.0001C29.3333 23.3639 23.3638 29.3334 16 29.3334C8.6362 29.3334 2.66666 23.3639 2.66666 16.0001C2.66666 8.63628 8.6362 2.66675 16 2.66675C23.3638 2.66675 29.3333 8.63628 29.3333 16.0001ZM8.66666 17.3333C8.29847 17.3333 8 17.0348 8 16.6666V15.3333C8 14.9651 8.29847 14.6666 8.66666 14.6666L18.8933 14.6666L15.9229 11.6847C15.6634 11.4242 15.6638 11.0028 15.9238 10.7428L16.8619 9.80472C17.1223 9.54437 17.5444 9.54437 17.8047 9.80472L23.5286 15.5286C23.7889 15.7889 23.7889 16.211 23.5286 16.4714L17.8031 22.1969C17.5434 22.4566 17.1225 22.4573 16.8619 22.1986L15.9147 21.258C15.6528 20.998 15.6521 20.5746 15.9131 20.3136L18.8933 17.3333H8.66666Z" fill="#404040"/>
</svg>
