<svg width="20" height="20" viewBox="0 0 20 20" fill="none" xmlns="http://www.w3.org/2000/svg">
<path fill-rule="evenodd" clip-rule="evenodd" d="M3.33333 2.5C2.8731 2.5 2.5 2.8731 2.5 3.33333C2.5 3.79357 2.8731 4.16667 3.33333 4.16667L16.6667 4.16667C17.1269 4.16667 17.5 3.79357 17.5 3.33333C17.5 2.8731 17.1269 2.5 16.6667 2.5H3.33333ZM3.33333 6.66667C2.8731 6.66667 2.5 7.03976 2.5 7.5C2.5 7.96024 2.8731 8.33333 3.33333 8.33333L16.6667 8.33333C17.1269 8.33333 17.5 7.96024 17.5 7.5C17.5 7.03976 17.1269 6.66667 16.6667 6.66667L3.33333 6.66667ZM3.33333 10.8333C2.8731 10.8333 2.5 11.2064 2.5 11.6667C2.5 12.1269 2.8731 12.5 3.33333 12.5L16.6667 12.5C17.1269 12.5 17.5 12.1269 17.5 11.6667C17.5 11.2064 17.1269 10.8333 16.6667 10.8333L3.33333 10.8333ZM2.5 15.8333C2.5 15.3731 2.8731 15 3.33333 15L16.6667 15C17.1269 15 17.5 15.3731 17.5 15.8333C17.5 16.2936 17.1269 16.6667 16.6667 16.6667H3.33333C2.8731 16.6667 2.5 16.2936 2.5 15.8333Z" fill="#404040"/>
</svg>
