<svg width="24" height="24" viewBox="0 0 24 24" fill="none" xmlns="http://www.w3.org/2000/svg">
<path fill-rule="evenodd" clip-rule="evenodd" d="M5.28219 17.3035C5.08693 17.4988 5.08693 17.8153 5.28219 18.0106L5.9893 18.7177C6.18456 18.913 6.50114 18.913 6.6964 18.7177L11.9997 13.4144L17.303 18.7177C17.4983 18.913 17.8149 18.913 18.0101 18.7177L18.7173 18.0106C18.9125 17.8154 18.9125 17.4988 18.7173 17.3035L13.4139 12.0002L18.7172 6.69689C18.9125 6.50163 18.9125 6.18505 18.7172 5.98978L18.0101 5.28268C17.8148 5.08741 17.4983 5.08742 17.303 5.28268L11.9997 10.586L6.69644 5.28271C6.50117 5.08745 6.18459 5.08745 5.98933 5.28271L5.28222 5.98982C5.08696 6.18508 5.08696 6.50166 5.28222 6.69693L10.5855 12.0002L5.28219 17.3035Z" fill="#404040"/>
</svg>
