<svg width="20" height="20" viewBox="0 0 20 20" fill="none" xmlns="http://www.w3.org/2000/svg">
<path fill-rule="evenodd" clip-rule="evenodd" d="M2.5 5.5C2.5 5.22386 2.72386 5 3 5H17C17.2761 5 17.5 5.22386 17.5 5.5V6.16667C17.5 6.44281 17.2761 6.66667 17 6.66667H3C2.72386 6.66667 2.5 6.44281 2.5 6.16667V5.5ZM5 10.3333C5 10.6095 5.22386 10.8333 5.5 10.8333H14.5C14.7761 10.8333 15 10.6095 15 10.3333V9.66667C15 9.39052 14.7761 9.16667 14.5 9.16667H5.5C5.22386 9.16667 5 9.39052 5 9.66667V10.3333ZM8.33333 14.5C8.33333 14.7761 8.55719 15 8.83333 15H11.1667C11.4428 15 11.6667 14.7761 11.6667 14.5V13.8333C11.6667 13.5572 11.4428 13.3333 11.1667 13.3333H8.83333C8.55719 13.3333 8.33333 13.5572 8.33333 13.8333V14.5Z" fill="#404040"/>
</svg>
