<svg width="24" height="24" viewBox="0 0 24 24" fill="none" xmlns="http://www.w3.org/2000/svg">
<path d="M4 12.5C4 12.7761 4.22386 13 4.5 13L16.17 13L10.9348 18.2352C10.7391 18.4309 10.7396 18.7485 10.9361 18.9436L11.6465 19.6489C11.8419 19.843 12.1575 19.8425 12.3523 19.6477L19.6464 12.3536C19.8417 12.1583 19.8417 11.8417 19.6464 11.6464L12.3536 4.35355C12.1583 4.15829 11.8417 4.15829 11.6464 4.35355L10.9432 5.05676C10.7481 5.2519 10.748 5.56824 10.9429 5.76355L16.17 11L4.5 11C4.22386 11 4 11.2239 4 11.5L4 12.5Z" fill="#404040"/>
</svg>
