<svg width="24" height="24" viewBox="0 0 24 24" fill="none" xmlns="http://www.w3.org/2000/svg">
<path fill-rule="evenodd" clip-rule="evenodd" d="M13.4001 3.4C13.4001 2.6268 12.7733 2 12.0001 2C11.2269 2 10.6001 2.6268 10.6001 3.4V3.7696C10.6001 4.00097 10.4404 4.20003 10.2195 4.2686C7.77516 5.02712 6 7.30626 6 10V14.5858C6 14.851 5.89464 15.1054 5.70711 15.2929L4.20711 16.7929C4.0745 16.9255 4 17.1054 4 17.2929C4 17.6834 4.31658 18 4.70711 18H19.2929C19.6834 18 20 17.6834 20 17.2929C20 17.1054 19.9255 16.9255 19.7929 16.7929L18.2929 15.2929C18.1054 15.1054 18 14.851 18 14.5858V10C18 7.30632 16.2249 5.02724 13.7807 4.26866C13.5597 4.20008 13.4001 4.00103 13.4001 3.76966V3.4ZM13.9378 19.4921C14.0062 19.2246 13.7761 18.9973 13.5 18.9973H10.5C10.2239 18.9973 9.99384 19.2246 10.0622 19.4921C10.1503 19.8371 10.3297 20.1555 10.5858 20.4115C10.9609 20.7866 11.4696 20.9973 12 20.9973C12.5304 20.9973 13.0391 20.7866 13.4142 20.4115C13.6703 20.1555 13.8497 19.8371 13.9378 19.4921Z" fill="#404040"/>
</svg>
