<svg width="20" height="20" viewBox="0 0 20 20" fill="none" xmlns="http://www.w3.org/2000/svg">
<path fill-rule="evenodd" clip-rule="evenodd" d="M11.6667 6.66666C11.6667 7.59063 10.924 8.33333 10 8.33333C9.07607 8.33333 8.33337 7.59063 8.33337 6.66666C8.33337 5.74269 9.07607 4.99999 10 4.99999C10.924 4.99999 11.6667 5.74269 11.6667 6.66666ZM13.3334 6.66666C13.3334 8.51111 11.8445 10 10 10C8.1556 10 6.66671 8.51111 6.66671 6.66666C6.66671 4.82222 8.1556 3.33333 10 3.33333C11.8445 3.33333 13.3334 4.82222 13.3334 6.66666ZM5.00004 14.8171C5.00004 14.3135 5.42344 13.7353 6.49764 13.2351C7.51828 12.7599 8.85383 12.5 10 12.5C11.1462 12.5 12.4818 12.7599 13.5024 13.2351C14.5766 13.7353 15 14.3135 15 14.8171V15H5.00004V14.8171ZM10 10.8333C8.64625 10.8333 7.06514 11.1324 5.79411 11.7242C4.57664 12.2911 3.33337 13.2881 3.33337 14.8171V16.6667H16.6667V14.8171C16.6667 13.2881 15.4234 12.2911 14.206 11.7242C12.9349 11.1324 11.3538 10.8333 10 10.8333Z" fill="#404040"/>
</svg>
