<svg width="24" height="24" viewBox="0 0 24 24" fill="none" xmlns="http://www.w3.org/2000/svg">
<path fill-rule="evenodd" clip-rule="evenodd" d="M20 12C20 16.4183 16.4183 20 12 20C7.58172 20 4 16.4183 4 12C4 7.58172 7.58172 4 12 4C16.4183 4 20 7.58172 20 12ZM22 12C22 17.5228 17.5228 22 12 22C6.47715 22 2 17.5228 2 12C2 6.47715 6.47715 2 12 2C17.5228 2 22 6.47715 22 12ZM9.64643 16.6464C9.84169 16.8417 10.1583 16.8417 10.3535 16.6464L17.6477 9.35228C17.8425 9.1575 17.843 8.84188 17.6489 8.64642L16.9435 7.93603C16.7485 7.73959 16.4309 7.73903 16.2352 7.93478L9.99999 14.17L7.76354 11.9422C7.56817 11.7475 7.25211 11.7478 7.05712 11.9428L6.35354 12.6464C6.15828 12.8417 6.15828 13.1583 6.35354 13.3535L9.64643 16.6464Z" fill="#1C8450"/>
</svg>
