<svg width="16" height="16" viewBox="0 0 16 16" fill="none" xmlns="http://www.w3.org/2000/svg">
<path d="M2.66669 8.33328C2.66669 8.51738 2.81593 8.66662 3.00002 8.66662L10.78 8.66662L7.28989 12.1567C7.15939 12.2872 7.15976 12.4989 7.29072 12.629L7.76432 13.0992C7.89463 13.2286 8.10504 13.2283 8.23489 13.0984L13.0977 8.23565C13.2278 8.10548 13.2278 7.89442 13.0977 7.76425L8.23572 2.90232C8.10555 2.77214 7.89449 2.77214 7.76432 2.90232L7.29551 3.37113C7.16542 3.50122 7.16533 3.71211 7.2953 3.84232L10.78 7.33328L3.00002 7.33328C2.81592 7.33328 2.66669 7.48252 2.66669 7.66662L2.66669 8.33328Z" fill="#404040"/>
</svg>
