<svg width="205" height="160" viewBox="0 0 205 160" fill="none" xmlns="http://www.w3.org/2000/svg">
<path d="M0 2C0 0.895429 0.895431 0 2 0H203C204.105 0 205 0.895431 205 2V158C205 159.105 204.105 160 203 160H2C0.895429 160 0 159.105 0 158V2Z" fill="#F5F5F5"/>
<path d="M8 152L197 8M197 152L8 8" stroke="black" stroke-opacity="0.06"/>
<rect x="63" y="68" width="78" height="24" rx="2" fill="#F5F5F5"/>
<path d="M72.3516 84H73.3184V81.2339H75.2734C76.729 81.2339 77.7603 80.208 77.7603 78.7363V78.7256C77.7603 77.2539 76.729 76.2495 75.2734 76.2495H72.3516V84ZM75.0264 77.1089C76.1328 77.1089 76.772 77.7158 76.772 78.7363V78.7471C76.772 79.7676 76.1328 80.3745 75.0264 80.3745H73.3184V77.1089H75.0264ZM79.2803 84H80.2148V75.9111H79.2803V84ZM83.5986 84.1021C84.3774 84.1021 84.9844 83.7637 85.3496 83.146H85.4355V84H86.3701V80.0361C86.3701 78.833 85.5806 78.1079 84.168 78.1079C82.9326 78.1079 82.0518 78.7202 81.9014 79.6279L81.896 79.6602H82.8306L82.8359 79.644C82.9863 79.1929 83.4429 78.9351 84.1357 78.9351C85.0005 78.9351 85.4355 79.3218 85.4355 80.0361V80.5625L83.7759 80.6646C82.4277 80.7451 81.665 81.3413 81.665 82.3726V82.3833C81.665 83.436 82.4976 84.1021 83.5986 84.1021ZM82.6211 82.3618V82.3511C82.6211 81.7764 83.0078 81.4648 83.8887 81.4111L85.4355 81.3145V81.8408C85.4355 82.668 84.7427 83.291 83.792 83.291C83.1206 83.291 82.6211 82.9473 82.6211 82.3618ZM90.4468 84.1021C91.8379 84.1021 92.6167 83.3555 92.853 82.3081L92.8638 82.249L91.9399 82.2544L91.9292 82.2866C91.7144 82.9312 91.2202 83.2749 90.4414 83.2749C89.4102 83.2749 88.7441 82.4209 88.7441 81.0889V81.0781C88.7441 79.7729 89.3994 78.9351 90.4414 78.9351C91.2739 78.9351 91.7896 79.397 91.9346 79.9663L91.9399 79.9824H92.8691L92.8638 79.9502C92.6919 78.9189 91.8486 78.1079 90.4414 78.1079C88.8193 78.1079 87.7881 79.2788 87.7881 81.0781V81.0889C87.7881 82.9258 88.8247 84.1021 90.4468 84.1021ZM96.5967 84.1021C97.9609 84.1021 98.7881 83.3286 98.9868 82.5444L98.9976 82.5015H98.063L98.0415 82.5498C97.8857 82.8989 97.4023 83.2695 96.6182 83.2695C95.5869 83.2695 94.9263 82.5713 94.8994 81.3735H99.0674V81.0083C99.0674 79.2788 98.1113 78.1079 96.5376 78.1079C94.9639 78.1079 93.9434 79.3325 93.9434 81.1211V81.1265C93.9434 82.9419 94.9424 84.1021 96.5967 84.1021ZM96.5322 78.9404C97.3862 78.9404 98.02 79.4829 98.1167 80.627H94.9155C95.0176 79.5259 95.6729 78.9404 96.5322 78.9404ZM100.571 84H101.506V80.5732C101.506 79.5581 102.091 78.9351 103.015 78.9351C103.939 78.9351 104.369 79.4346 104.369 80.4766V84H105.303V80.251C105.303 78.876 104.578 78.1079 103.278 78.1079C102.424 78.1079 101.882 78.4678 101.592 79.0801H101.506V75.9111H100.571V84ZM109.375 84.1021C111.023 84.1021 112.044 82.9634 112.044 81.1104V81.0996C112.044 79.2412 111.023 78.1079 109.375 78.1079C107.726 78.1079 106.705 79.2412 106.705 81.0996V81.1104C106.705 82.9634 107.726 84.1021 109.375 84.1021ZM109.375 83.2749C108.279 83.2749 107.661 82.4746 107.661 81.1104V81.0996C107.661 79.73 108.279 78.9351 109.375 78.9351C110.47 78.9351 111.088 79.73 111.088 81.0996V81.1104C111.088 82.4746 110.47 83.2749 109.375 83.2749ZM113.548 84H114.482V75.9111H113.548V84ZM118.414 84.1021C119.22 84.1021 119.864 83.7207 120.219 83.0762H120.305V84H121.239V75.9111H120.305V79.123H120.219C119.902 78.5054 119.209 78.1079 118.414 78.1079C116.942 78.1079 115.986 79.2842 115.986 81.0996V81.1104C115.986 82.915 116.948 84.1021 118.414 84.1021ZM118.629 83.2749C117.571 83.2749 116.942 82.4585 116.942 81.1104V81.0996C116.942 79.7515 117.571 78.9351 118.629 78.9351C119.682 78.9351 120.326 79.7622 120.326 81.0996V81.1104C120.326 82.4478 119.682 83.2749 118.629 83.2749ZM125.396 84.1021C126.761 84.1021 127.588 83.3286 127.787 82.5444L127.797 82.5015H126.863L126.841 82.5498C126.686 82.8989 126.202 83.2695 125.418 83.2695C124.387 83.2695 123.726 82.5713 123.699 81.3735H127.867V81.0083C127.867 79.2788 126.911 78.1079 125.337 78.1079C123.764 78.1079 122.743 79.3325 122.743 81.1211V81.1265C122.743 82.9419 123.742 84.1021 125.396 84.1021ZM125.332 78.9404C126.186 78.9404 126.82 79.4829 126.917 80.627H123.715C123.817 79.5259 124.473 78.9404 125.332 78.9404ZM129.317 84H130.252V80.4121C130.252 79.5635 130.886 78.9995 131.777 78.9995C131.981 78.9995 132.159 79.021 132.352 79.0532V78.1455C132.261 78.1294 132.062 78.1079 131.885 78.1079C131.101 78.1079 130.558 78.4624 130.338 79.0693H130.252V78.21H129.317V84Z" fill="#D9D9D9"/>
<path d="M2 1H203V-1H2V1ZM204 2V158H206V2H204ZM203 159H2V161H203V159ZM1 158V2H-1V158H1ZM2 159C1.44771 159 1 158.552 1 158H-1C-1 159.657 0.343143 161 2 161V159ZM204 158C204 158.552 203.552 159 203 159V161C204.657 161 206 159.657 206 158H204ZM203 1C203.552 1 204 1.44771 204 2H206C206 0.343147 204.657 -1 203 -1V1ZM2 -1C0.343147 -1 -1 0.343143 -1 2H1C1 1.44771 1.44771 1 2 1V-1Z" fill="black" fill-opacity="0.06"/>
</svg>
