<svg width="20" height="20" viewBox="0 0 20 20" fill="none" xmlns="http://www.w3.org/2000/svg">
<path fill-rule="evenodd" clip-rule="evenodd" d="M18 10C18 14.4183 14.4183 18 10 18C5.58172 18 2 14.4183 2 10C2 5.58172 5.58172 2 10 2C14.4183 2 18 5.58172 18 10ZM20 10C20 15.5228 15.5228 20 10 20C4.47715 20 0 15.5228 0 10C0 4.47715 4.47715 0 10 0C15.5228 0 20 4.47715 20 10ZM10 15C9.3125 15 8.75 14.4375 8.75 13.75C8.75 13.0625 9.3125 12.5 10 12.5C10.6875 12.5 11.25 13.0625 11.25 13.75C11.25 14.4375 10.6875 15 10 15ZM10 11.25C9.3125 11.25 8.75 10.6875 8.75 10C8.75 9.3125 9.3125 8.75 10 8.75C10.6875 8.75 11.25 9.3125 11.25 10C11.25 10.6875 10.6875 11.25 10 11.25ZM8.75 6.25C8.75 6.9375 9.3125 7.5 10 7.5C10.6875 7.5 11.25 6.9375 11.25 6.25C11.25 5.5625 10.6875 5 10 5C9.3125 5 8.75 5.5625 8.75 6.25Z" fill="#404040"/>
</svg>
