<svg width="24" height="24" viewBox="0 0 24 24" fill="none" xmlns="http://www.w3.org/2000/svg">
<path fill-rule="evenodd" clip-rule="evenodd" d="M20 12C20 16.4183 16.4183 20 12 20C7.58172 20 4 16.4183 4 12C4 7.58172 7.58172 4 12 4C16.4183 4 20 7.58172 20 12ZM22 12C22 17.5228 17.5228 22 12 22C6.47715 22 2 17.5228 2 12C2 6.47715 6.47715 2 12 2C17.5228 2 22 6.47715 22 12ZM7.40373 15.889C7.20847 15.6938 7.20847 15.3772 7.40373 15.1819L10.5857 11.9999L7.40373 8.81795C7.20847 8.62269 7.20847 8.3061 7.40374 8.11084L8.11084 7.40374C8.3061 7.20847 8.62269 7.20847 8.81795 7.40373L11.9999 10.5857L15.1819 7.40373C15.3772 7.20847 15.6938 7.20847 15.889 7.40373L16.5961 8.11084C16.7914 8.3061 16.7914 8.62269 16.5961 8.81795L13.4141 11.9999L16.5961 15.1819C16.7914 15.3772 16.7914 15.6938 16.5961 15.889L15.889 16.5961C15.6938 16.7914 15.3772 16.7914 15.1819 16.5961L11.9999 13.4141L8.81795 16.5961C8.62269 16.7914 8.3061 16.7914 8.11084 16.5961L7.40373 15.889Z" fill="#D93638"/>
</svg>
