<svg width="20" height="20" viewBox="0 0 20 20" fill="none" xmlns="http://www.w3.org/2000/svg">
<path fill-rule="evenodd" clip-rule="evenodd" d="M9.70537 14.8755C9.86809 15.0383 10.1319 15.0383 10.2946 14.8755L13.628 11.5422C13.7907 11.3795 13.7907 11.1157 13.628 10.953L13.0387 10.3637C12.876 10.201 12.6122 10.201 12.4494 10.3637L10.8333 11.9798V2.08332C10.8333 1.8532 10.6468 1.66666 10.4167 1.66666L9.58333 1.66666C9.35321 1.66666 9.16667 1.8532 9.16667 2.08332V11.9798L7.55055 10.3637C7.38783 10.201 7.12401 10.201 6.96129 10.3637L6.37204 10.953C6.20932 11.1157 6.20932 11.3795 6.37204 11.5422L9.70537 14.8755ZM6.66667 6.66667C6.89679 6.66667 7.08333 6.85321 7.08333 7.08333V7.91667C7.08333 8.14678 6.89679 8.33333 6.66667 8.33333H5C4.53976 8.33333 4.16667 8.70643 4.16667 9.16667V15.8333C4.16667 16.2936 4.53976 16.6667 5 16.6667H15C15.4602 16.6667 15.8333 16.2936 15.8333 15.8333V9.16667C15.8333 8.70643 15.4602 8.33333 15 8.33333H13.3333C13.1032 8.33333 12.9167 8.14678 12.9167 7.91667V7.08333C12.9167 6.85321 13.1032 6.66667 13.3333 6.66667H15C16.3807 6.66667 17.5 7.78595 17.5 9.16667V15.8333C17.5 17.214 16.3807 18.3333 15 18.3333H5C3.61929 18.3333 2.5 17.214 2.5 15.8333V9.16667C2.5 7.78595 3.61929 6.66667 5 6.66667H6.66667Z" fill="#404040"/>
</svg>
