<svg width="34" height="34" viewBox="0 0 34 34" fill="none" xmlns="http://www.w3.org/2000/svg">
<path fill-rule="evenodd" clip-rule="evenodd" d="M27.2409 4.16667H6.75912L17 14.4076L27.2409 4.16667ZM4.16667 6.75966V27.2409L14.4073 17.0003L4.16667 6.75966ZM6.75967 29.8333H27.2403L17 19.593L6.75967 29.8333ZM29.8333 27.2409V6.75967L19.5927 17.0003L29.8333 27.2409ZM0.5 6C0.5 2.96243 2.96243 0.5 6 0.5H28C31.0376 0.5 33.5 2.96243 33.5 6V28C33.5 31.0376 31.0376 33.5 28 33.5H6C2.96243 33.5 0.5 31.0376 0.5 28V6Z" fill="#404040"/>
</svg>
