<svg width="320" height="163" viewBox="0 0 320 163" fill="none" xmlns="http://www.w3.org/2000/svg">
<path d="M0 2C0 0.895427 0.895431 0 2 0H318C319.105 0 320 0.895431 320 2V161C320 162.105 319.105 163 318 163H2.00001C0.895438 163 0 162.105 0 161V2Z" fill="#F5F5F5"/>
<path d="M8 155L312 8M312 155L8 8" stroke="black" stroke-opacity="0.06"/>
<rect x="120" y="70" width="78" height="24" rx="2" fill="#F5F5F5"/>
<path d="M129.352 86H130.318V83.2339H132.273C133.729 83.2339 134.76 82.208 134.76 80.7363V80.7256C134.76 79.2539 133.729 78.2495 132.273 78.2495H129.352V86ZM132.026 79.1089C133.133 79.1089 133.772 79.7158 133.772 80.7363V80.7471C133.772 81.7676 133.133 82.3745 132.026 82.3745H130.318V79.1089H132.026ZM136.28 86H137.215V77.9111H136.28V86ZM140.599 86.1021C141.377 86.1021 141.984 85.7637 142.35 85.146H142.436V86H143.37V82.0361C143.37 80.833 142.581 80.1079 141.168 80.1079C139.933 80.1079 139.052 80.7202 138.901 81.6279L138.896 81.6602H139.831L139.836 81.644C139.986 81.1929 140.443 80.9351 141.136 80.9351C142 80.9351 142.436 81.3218 142.436 82.0361V82.5625L140.776 82.6646C139.428 82.7451 138.665 83.3413 138.665 84.3726V84.3833C138.665 85.436 139.498 86.1021 140.599 86.1021ZM139.621 84.3618V84.3511C139.621 83.7764 140.008 83.4648 140.889 83.4111L142.436 83.3145V83.8408C142.436 84.668 141.743 85.291 140.792 85.291C140.121 85.291 139.621 84.9473 139.621 84.3618ZM147.447 86.1021C148.838 86.1021 149.617 85.3555 149.853 84.3081L149.864 84.249L148.94 84.2544L148.929 84.2866C148.714 84.9312 148.22 85.2749 147.441 85.2749C146.41 85.2749 145.744 84.4209 145.744 83.0889V83.0781C145.744 81.7729 146.399 80.9351 147.441 80.9351C148.274 80.9351 148.79 81.397 148.935 81.9663L148.94 81.9824H149.869L149.864 81.9502C149.692 80.9189 148.849 80.1079 147.441 80.1079C145.819 80.1079 144.788 81.2788 144.788 83.0781V83.0889C144.788 84.9258 145.825 86.1021 147.447 86.1021ZM153.597 86.1021C154.961 86.1021 155.788 85.3286 155.987 84.5444L155.998 84.5015H155.063L155.042 84.5498C154.886 84.8989 154.402 85.2695 153.618 85.2695C152.587 85.2695 151.926 84.5713 151.899 83.3735H156.067V83.0083C156.067 81.2788 155.111 80.1079 153.538 80.1079C151.964 80.1079 150.943 81.3325 150.943 83.1211V83.1265C150.943 84.9419 151.942 86.1021 153.597 86.1021ZM153.532 80.9404C154.386 80.9404 155.02 81.4829 155.117 82.627H151.916C152.018 81.5259 152.673 80.9404 153.532 80.9404ZM157.571 86H158.506V82.5732C158.506 81.5581 159.091 80.9351 160.015 80.9351C160.939 80.9351 161.369 81.4346 161.369 82.4766V86H162.303V82.251C162.303 80.876 161.578 80.1079 160.278 80.1079C159.424 80.1079 158.882 80.4678 158.592 81.0801H158.506V77.9111H157.571V86ZM166.375 86.1021C168.023 86.1021 169.044 84.9634 169.044 83.1104V83.0996C169.044 81.2412 168.023 80.1079 166.375 80.1079C164.726 80.1079 163.705 81.2412 163.705 83.0996V83.1104C163.705 84.9634 164.726 86.1021 166.375 86.1021ZM166.375 85.2749C165.279 85.2749 164.661 84.4746 164.661 83.1104V83.0996C164.661 81.73 165.279 80.9351 166.375 80.9351C167.47 80.9351 168.088 81.73 168.088 83.0996V83.1104C168.088 84.4746 167.47 85.2749 166.375 85.2749ZM170.548 86H171.482V77.9111H170.548V86ZM175.414 86.1021C176.22 86.1021 176.864 85.7207 177.219 85.0762H177.305V86H178.239V77.9111H177.305V81.123H177.219C176.902 80.5054 176.209 80.1079 175.414 80.1079C173.942 80.1079 172.986 81.2842 172.986 83.0996V83.1104C172.986 84.915 173.948 86.1021 175.414 86.1021ZM175.629 85.2749C174.571 85.2749 173.942 84.4585 173.942 83.1104V83.0996C173.942 81.7515 174.571 80.9351 175.629 80.9351C176.682 80.9351 177.326 81.7622 177.326 83.0996V83.1104C177.326 84.4478 176.682 85.2749 175.629 85.2749ZM182.396 86.1021C183.761 86.1021 184.588 85.3286 184.787 84.5444L184.797 84.5015H183.863L183.841 84.5498C183.686 84.8989 183.202 85.2695 182.418 85.2695C181.387 85.2695 180.726 84.5713 180.699 83.3735H184.867V83.0083C184.867 81.2788 183.911 80.1079 182.337 80.1079C180.764 80.1079 179.743 81.3325 179.743 83.1211V83.1265C179.743 84.9419 180.742 86.1021 182.396 86.1021ZM182.332 80.9404C183.186 80.9404 183.82 81.4829 183.917 82.627H180.715C180.817 81.5259 181.473 80.9404 182.332 80.9404ZM186.317 86H187.252V82.4121C187.252 81.5635 187.886 80.9995 188.777 80.9995C188.981 80.9995 189.159 81.021 189.352 81.0532V80.1455C189.261 80.1294 189.062 80.1079 188.885 80.1079C188.101 80.1079 187.558 80.4624 187.338 81.0693H187.252V80.21H186.317V86Z" fill="#D9D9D9"/>
<path d="M2 1H318V-1H2V1ZM319 2V161H321V2H319ZM318 162H2.00001V164H318V162ZM1 161V2H-1V161H1ZM2.00001 162C1.44772 162 1 161.552 1 161H-1C-1 162.657 0.343158 164 2.00001 164V162ZM319 161C319 161.552 318.552 162 318 162V164C319.657 164 321 162.657 321 161H319ZM318 1C318.552 1 319 1.44772 319 2H321C321 0.343141 319.657 -1 318 -1V1ZM2 -1C0.343148 -1 -1 0.343139 -1 2H1C1 1.44771 1.44771 1 2 1V-1Z" fill="black" fill-opacity="0.06"/>
</svg>
